<svg width="16" height="17" fill="none" xmlns="http://www.w3.org/2000/svg"><g clip-path="url(#clip0_46_408)"><path d="M8 .5c-4.411 0-8 3.589-8 8s3.589 8 8 8 8-3.589 8-8-3.589-8-8-8zm-.469 3.927a10.884 10.884 0 01-2.093-.294c.108-.255.225-.5.35-.732.517-.953 1.152-1.621 1.743-1.863v2.889zm0 .938v2.666H4.603a11.78 11.78 0 01.512-3.013 11.87 11.87 0 002.416.347zm0 3.604v2.666a11.88 11.88 0 00-2.416.347 11.78 11.78 0 01-.512-3.013h2.928zm0 3.604v2.89c-.591-.243-1.226-.911-1.742-1.864a8.328 8.328 0 01-.35-.732 10.94 10.94 0 012.092-.294zm.938 0c.713.03 1.419.131 2.093.294-.108.255-.225.5-.35.732-.517.953-1.152 1.621-1.743 1.863v-2.889zm0-.938V8.969h2.928a11.78 11.78 0 01-.512 3.013 11.866 11.866 0 00-2.416-.347zm0-3.604V5.365a11.869 11.869 0 002.416-.347c.293.94.47 1.973.512 3.013H8.469zm0-3.604v-2.89c.591.243 1.226.911 1.742 1.864.126.232.243.477.35.732-.673.163-1.38.263-2.092.294zm2.566-1.474a7.114 7.114 0 00-.758-1.139c.937.32 1.786.832 2.5 1.49a8.86 8.86 0 01-1.308.565 9.503 9.503 0 00-.434-.916zm-6.07 0a9.498 9.498 0 00-.434.916 8.871 8.871 0 01-1.308-.566 7.071 7.071 0 012.5-1.489 7.12 7.12 0 00-.758 1.14zM4.213 4.75a12.553 12.553 0 00-.548 3.281H.953a7.03 7.03 0 011.603-4.026c.51.292 1.067.542 1.657.745zm-.548 4.22c.04 1.142.229 2.257.548 3.28a9.64 9.64 0 00-1.657.746A7.03 7.03 0 01.953 8.969h2.712zm.866 4.162c.13.318.275.624.434.915.234.433.49.815.758 1.14a7.07 7.07 0 01-2.5-1.49 8.857 8.857 0 011.308-.565zm6.504.915c.159-.29.303-.597.434-.915.462.158.9.348 1.308.566a7.072 7.072 0 01-2.5 1.489 7.03 7.03 0 00.758-1.14zm.752-1.796c.32-1.024.508-2.14.548-3.281h2.711a7.03 7.03 0 01-1.602 4.026 9.642 9.642 0 00-1.658-.745zm.548-4.219a12.554 12.554 0 00-.549-3.28 9.645 9.645 0 001.658-.746 7.029 7.029 0 011.602 4.026h-2.71z" fill="#07275C"/></g><defs><clipPath id="clip0_46_408"><path fill="#fff" transform="translate(0 .5)" d="M0 0h16v16H0z"/></clipPath></defs></svg>