<?xml version="1.0" encoding="utf-8"?><svg viewBox="0 0 512 512" xmlns="http://www.w3.org/2000/svg" xmlns:xlink="http://www.w3.org/1999/xlink"><style>:root>svg{display:none}:root>svg:target{display:block}</style><svg viewBox="0 0 16 17" id="global" xmlns="http://www.w3.org/2000/svg"><g clip-path="url(#aclip0_46_408)"><path d="M8 .5c-4.411 0-8 3.589-8 8s3.589 8 8 8 8-3.589 8-8-3.589-8-8-8zm-.469 3.927c-.713-.03-1.419-.131-2.093-.294.108-.255.225-.5.35-.732.517-.953 1.152-1.621 1.743-1.863v2.889zm0 .938v2.666H4.603a11.78 11.78 0 01.512-3.013 11.87 11.87 0 002.416.347zm0 3.604v2.666c-.822.033-1.638.151-2.416.347a11.78 11.78 0 01-.512-3.013h2.928zm0 3.604v2.89c-.591-.243-1.226-.911-1.742-1.864a8.328 8.328 0 01-.35-.732c.673-.163 1.379-.263 2.092-.294zm.938 0c.713.03 1.419.131 2.093.294-.108.255-.225.5-.35.732-.517.953-1.152 1.621-1.743 1.863v-2.889zm0-.938V8.969h2.928a11.78 11.78 0 01-.512 3.013 11.866 11.866 0 00-2.416-.347zm0-3.604V5.365a11.869 11.869 0 002.416-.347c.293.94.47 1.973.512 3.013H8.469zm0-3.604v-2.89c.591.243 1.226.911 1.742 1.864.126.232.243.477.35.732-.673.163-1.38.263-2.092.294zm2.566-1.474a7.114 7.114 0 00-.758-1.139c.937.32 1.786.832 2.5 1.49a8.86 8.86 0 01-1.308.565 9.503 9.503 0 00-.434-.916zm-6.07 0a9.498 9.498 0 00-.434.916 8.871 8.871 0 01-1.308-.566 7.071 7.071 0 012.5-1.489 7.12 7.12 0 00-.758 1.14zM4.213 4.75a12.553 12.553 0 00-.548 3.281H.953a7.03 7.03 0 011.603-4.026c.51.292 1.067.542 1.657.745zM3.665 8.97c.04 1.142.229 2.257.548 3.28a9.64 9.64 0 00-1.657.746A7.03 7.03 0 01.953 8.969h2.712zm.866 4.162c.13.318.275.624.434.915.234.433.49.815.758 1.14a7.07 7.07 0 01-2.5-1.49 8.857 8.857 0 011.308-.565zm6.504.915c.159-.29.303-.597.434-.915.462.158.9.348 1.308.566a7.072 7.072 0 01-2.5 1.489c.269-.325.524-.707.758-1.14zm.752-1.796c.32-1.024.508-2.14.548-3.281h2.711a7.03 7.03 0 01-1.602 4.026 9.642 9.642 0 00-1.658-.745zm.548-4.219a12.554 12.554 0 00-.549-3.28 9.645 9.645 0 001.658-.746 7.029 7.029 0 011.602 4.026h-2.71z"/></g><defs><clipPath id="aclip0_46_408"><path transform="translate(0 .5)" d="M0 0h16v16H0z"/></clipPath></defs></svg><svg aria-hidden="true" data-prefix="fas" data-icon="pen-nib" class="bsvg-inline--fa bfa-pen-nib bfa-w-16" viewBox="0 0 512 512" id="up" xmlns="http://www.w3.org/2000/svg"><path d="M136.6 138.79a64.003 64.003 0 00-43.31 41.35L0 460l14.69 14.69L164.8 324.58c-2.99-6.26-4.8-13.18-4.8-20.58 0-26.51 21.49-48 48-48s48 21.49 48 48-21.49 48-48 48c-7.4 0-14.32-1.81-20.58-4.8L37.31 497.31 52 512l279.86-93.29a64.003 64.003 0 0041.35-43.31L416 224 288 96l-151.4 42.79zm361.34-64.62l-60.11-60.11c-18.75-18.75-49.16-18.75-67.91 0l-56.55 56.55 128.02 128.02 56.55-56.55c18.75-18.75 18.75-49.15 0-67.91z"/></svg></svg>